<mxfile host="Electron" agent="Mozilla/5.0 (Windows NT 10.0; Win64; x64) AppleWebKit/537.36 (KHTML, like Gecko) draw.io/24.7.17 Chrome/128.0.6613.36 Electron/32.0.1 Safari/537.36" version="24.7.17">
  <diagram name="第1頁" id="zWrscoIb-e2rPoPNSZYR">
    <mxGraphModel dx="1098" dy="828" grid="1" gridSize="10" guides="1" tooltips="1" connect="1" arrows="1" fold="1" page="1" pageScale="1" pageWidth="827" pageHeight="1169" math="0" shadow="0">
      <root>
        <mxCell id="0" />
        <mxCell id="1" parent="0" />
        <mxCell id="y8ABvGKaBrcPEhD9dzAO-1" value="載入影像" style="whiteSpace=wrap;strokeWidth=2;fontSize=20;sketch=1;curveFitting=1;jiggle=2;labelBackgroundColor=none;" vertex="1" parent="1">
          <mxGeometry x="74" y="20" width="124" height="49" as="geometry" />
        </mxCell>
        <mxCell id="y8ABvGKaBrcPEhD9dzAO-2" value="檢測特徵點 SIFT" style="whiteSpace=wrap;strokeWidth=2;fontSize=20;sketch=1;curveFitting=1;jiggle=2;labelBackgroundColor=none;" vertex="1" parent="1">
          <mxGeometry x="270" y="20" width="175" height="49" as="geometry" />
        </mxCell>
        <mxCell id="y8ABvGKaBrcPEhD9dzAO-18" value="" style="edgeStyle=orthogonalEdgeStyle;rounded=0;sketch=1;hachureGap=4;jiggle=2;curveFitting=1;orthogonalLoop=1;jettySize=auto;html=1;fontFamily=Architects Daughter;fontSource=https%3A%2F%2Ffonts.googleapis.com%2Fcss%3Ffamily%3DArchitects%2BDaughter;" edge="1" parent="1" source="y8ABvGKaBrcPEhD9dzAO-3" target="y8ABvGKaBrcPEhD9dzAO-4">
          <mxGeometry relative="1" as="geometry">
            <Array as="points">
              <mxPoint x="611" y="90" />
              <mxPoint x="176" y="90" />
            </Array>
          </mxGeometry>
        </mxCell>
        <mxCell id="y8ABvGKaBrcPEhD9dzAO-3" value="描述符匹配 BFMatcher" style="whiteSpace=wrap;strokeWidth=2;fontSize=20;sketch=1;curveFitting=1;jiggle=2;labelBackgroundColor=none;" vertex="1" parent="1">
          <mxGeometry x="500" y="20" width="221" height="49" as="geometry" />
        </mxCell>
        <mxCell id="y8ABvGKaBrcPEhD9dzAO-4" value="過濾匹配點 ratio test" style="whiteSpace=wrap;strokeWidth=2;fontSize=20;sketch=1;curveFitting=1;jiggle=2;labelBackgroundColor=none;" vertex="1" parent="1">
          <mxGeometry x="70" y="130" width="212" height="49" as="geometry" />
        </mxCell>
        <mxCell id="y8ABvGKaBrcPEhD9dzAO-5" value="隨機採樣一致性 RANSAC" style="whiteSpace=wrap;strokeWidth=2;fontSize=20;sketch=1;curveFitting=1;jiggle=2;labelBackgroundColor=none;" vertex="1" parent="1">
          <mxGeometry x="310" y="130" width="233" height="49" as="geometry" />
        </mxCell>
        <mxCell id="y8ABvGKaBrcPEhD9dzAO-19" value="" style="edgeStyle=orthogonalEdgeStyle;rounded=0;sketch=1;hachureGap=4;jiggle=2;curveFitting=1;orthogonalLoop=1;jettySize=auto;html=1;fontFamily=Architects Daughter;fontSource=https%3A%2F%2Ffonts.googleapis.com%2Fcss%3Ffamily%3DArchitects%2BDaughter;entryX=0.558;entryY=0;entryDx=0;entryDy=0;entryPerimeter=0;" edge="1" parent="1" source="y8ABvGKaBrcPEhD9dzAO-6" target="y8ABvGKaBrcPEhD9dzAO-7">
          <mxGeometry relative="1" as="geometry">
            <Array as="points">
              <mxPoint x="664" y="210" />
              <mxPoint x="170" y="210" />
            </Array>
          </mxGeometry>
        </mxCell>
        <mxCell id="y8ABvGKaBrcPEhD9dzAO-6" value="計算單應性矩陣 H" style="whiteSpace=wrap;strokeWidth=2;fontSize=20;sketch=1;curveFitting=1;jiggle=2;labelBackgroundColor=none;" vertex="1" parent="1">
          <mxGeometry x="570" y="130" width="187" height="49" as="geometry" />
        </mxCell>
        <mxCell id="y8ABvGKaBrcPEhD9dzAO-7" value="透視變換與平移" style="whiteSpace=wrap;strokeWidth=2;fontSize=20;sketch=1;curveFitting=1;jiggle=2;labelBackgroundColor=none;" vertex="1" parent="1">
          <mxGeometry x="74" y="240" width="172" height="49" as="geometry" />
        </mxCell>
        <mxCell id="y8ABvGKaBrcPEhD9dzAO-8" value="融合圖像" style="whiteSpace=wrap;strokeWidth=2;fontSize=20;sketch=1;curveFitting=1;jiggle=2;labelBackgroundColor=none;" vertex="1" parent="1">
          <mxGeometry x="320" y="240" width="124" height="49" as="geometry" />
        </mxCell>
        <mxCell id="y8ABvGKaBrcPEhD9dzAO-9" value="輸出拼接結果" style="whiteSpace=wrap;strokeWidth=2;fontSize=20;sketch=1;curveFitting=1;jiggle=2;labelBackgroundColor=none;" vertex="1" parent="1">
          <mxGeometry x="520" y="240" width="156" height="49" as="geometry" />
        </mxCell>
        <mxCell id="y8ABvGKaBrcPEhD9dzAO-10" value="" style="curved=1;startArrow=none;endArrow=block;exitX=1;exitY=0.5;entryX=0;entryY=0.5;rounded=0;fontSize=20;sketch=1;curveFitting=1;jiggle=2;labelBackgroundColor=none;fontColor=default;exitDx=0;exitDy=0;entryDx=0;entryDy=0;" edge="1" parent="1" source="y8ABvGKaBrcPEhD9dzAO-1" target="y8ABvGKaBrcPEhD9dzAO-2">
          <mxGeometry relative="1" as="geometry">
            <Array as="points" />
          </mxGeometry>
        </mxCell>
        <mxCell id="y8ABvGKaBrcPEhD9dzAO-11" value="" style="curved=1;startArrow=none;endArrow=block;exitX=1;exitY=0.5;entryX=0;entryY=0.5;rounded=0;fontSize=20;sketch=1;curveFitting=1;jiggle=2;labelBackgroundColor=none;fontColor=default;entryDx=0;entryDy=0;exitDx=0;exitDy=0;" edge="1" parent="1" source="y8ABvGKaBrcPEhD9dzAO-2" target="y8ABvGKaBrcPEhD9dzAO-3">
          <mxGeometry relative="1" as="geometry">
            <Array as="points" />
          </mxGeometry>
        </mxCell>
        <mxCell id="y8ABvGKaBrcPEhD9dzAO-13" value="" style="curved=1;startArrow=none;endArrow=block;exitX=1;exitY=0.5;entryX=0;entryY=0.5;rounded=0;fontSize=20;sketch=1;curveFitting=1;jiggle=2;labelBackgroundColor=none;fontColor=default;exitDx=0;exitDy=0;entryDx=0;entryDy=0;" edge="1" parent="1" source="y8ABvGKaBrcPEhD9dzAO-4" target="y8ABvGKaBrcPEhD9dzAO-5">
          <mxGeometry relative="1" as="geometry">
            <Array as="points" />
          </mxGeometry>
        </mxCell>
        <mxCell id="y8ABvGKaBrcPEhD9dzAO-14" value="" style="curved=1;startArrow=none;endArrow=block;exitX=1;exitY=0.5;entryX=0;entryY=0.5;rounded=0;fontSize=20;sketch=1;curveFitting=1;jiggle=2;labelBackgroundColor=none;fontColor=default;exitDx=0;exitDy=0;entryDx=0;entryDy=0;" edge="1" parent="1" source="y8ABvGKaBrcPEhD9dzAO-5" target="y8ABvGKaBrcPEhD9dzAO-6">
          <mxGeometry relative="1" as="geometry">
            <Array as="points" />
          </mxGeometry>
        </mxCell>
        <mxCell id="y8ABvGKaBrcPEhD9dzAO-16" value="" style="curved=1;startArrow=none;endArrow=block;exitX=1;exitY=0.5;entryX=0;entryY=0.5;rounded=0;fontSize=20;sketch=1;curveFitting=1;jiggle=2;labelBackgroundColor=none;fontColor=default;exitDx=0;exitDy=0;entryDx=0;entryDy=0;" edge="1" parent="1" source="y8ABvGKaBrcPEhD9dzAO-7" target="y8ABvGKaBrcPEhD9dzAO-8">
          <mxGeometry relative="1" as="geometry">
            <Array as="points" />
          </mxGeometry>
        </mxCell>
        <mxCell id="y8ABvGKaBrcPEhD9dzAO-17" value="" style="curved=1;startArrow=none;endArrow=block;exitX=1;exitY=0.5;entryX=0;entryY=0.5;rounded=0;fontSize=20;sketch=1;curveFitting=1;jiggle=2;labelBackgroundColor=none;fontColor=default;exitDx=0;exitDy=0;entryDx=0;entryDy=0;" edge="1" parent="1" source="y8ABvGKaBrcPEhD9dzAO-8" target="y8ABvGKaBrcPEhD9dzAO-9">
          <mxGeometry relative="1" as="geometry">
            <Array as="points" />
          </mxGeometry>
        </mxCell>
      </root>
    </mxGraphModel>
  </diagram>
</mxfile>
